<svg xmlns="http://www.w3.org/2000/svg" viewBox="0 0 254 205" width="254" height="205" role="img" aria-label="JF logo cutout">
  <path d="M 221 43 L 214 38 L 204 36 L 148 32 L 115 34 L 99 41 L 89 54 L 87 72 L 96 85 L 111 91 L 122 91 L 131 86 L 131 81 L 128 78 L 113 74 L 108 69 L 107 59 L 112 52 L 120 47 L 128 46 L 148 47 L 153 51 L 153 60 L 134 99 L 128 107 L 79 110 L 50 119 L 45 122 L 33 136 L 32 150 L 35 156 L 43 164 L 56 170 L 65 172 L 92 171 L 99 169 L 116 159 L 126 148 L 143 123 L 172 123 L 188 120 L 189 115 L 186 112 L 153 110 L 150 107 L 167 61 L 176 51 L 220 49 Z M 122 119 L 122 121 L 121 122 L 121 123 L 119 125 L 119 126 L 117 128 L 117 129 L 115 131 L 115 132 L 114 133 L 114 134 L 112 136 L 112 137 L 110 139 L 110 140 L 108 142 L 107 142 L 103 146 L 102 146 L 101 147 L 100 147 L 99 148 L 98 148 L 97 149 L 95 149 L 94 150 L 92 150 L 91 151 L 77 151 L 76 150 L 74 150 L 73 149 L 72 149 L 67 144 L 67 143 L 66 142 L 66 135 L 68 133 L 68 132 L 72 128 L 73 128 L 75 126 L 76 126 L 77 125 L 78 125 L 79 124 L 80 124 L 81 123 L 83 123 L 84 122 L 86 122 L 87 121 L 90 121 L 91 120 L 97 120 L 98 119 L 110 119 L 111 118 L 121 118 Z" fill="#ffffff" fill-rule="evenodd"/>
</svg>
